<svg xmlns="http://www.w3.org/2000/svg" version="1.1" xmlns:xlink="http://www.w3.org/1999/xlink" xmlns:svgjs="http://svgjs.com/svgjs" width="361" height="361"><svg width="361" height="361" viewBox="0 0 361 361" fill="none" xmlns="http://www.w3.org/2000/svg">
<path fill-rule="evenodd" clip-rule="evenodd" d="M180.5 287.598C279.083 287.598 359 239.783 359 180.799C359 121.816 279.083 74 180.5 74C81.9172 74 2 121.816 2 180.799C2 239.783 81.9172 287.598 180.5 287.598ZM180 282C275.545 282 353 236.781 353 181C353 125.219 275.545 80 180 80C84.4547 80 7 125.219 7 181C7 236.781 84.4547 282 180 282Z" fill="#363878"></path>
<path d="M253.762 245.5H262.507L260.857 255.07H252.112L253.762 245.5Z" fill="#363878"></path>
<path d="M249.301 240.415C248.788 243.495 248.109 246.043 247.266 248.06C246.459 250.077 245.323 251.69 243.856 252.9C242.426 254.073 240.611 254.917 238.411 255.43C236.248 255.907 233.571 256.145 230.381 256.145C228.144 256.145 226.109 255.998 224.276 255.705C222.479 255.412 220.921 254.88 219.601 254.11C218.318 253.34 217.328 252.295 216.631 250.975C215.934 249.618 215.586 247.913 215.586 245.86C215.586 245.09 215.623 244.283 215.696 243.44C215.806 242.56 215.953 241.588 216.136 240.525L218.116 229.47C218.959 224.557 220.958 221 224.111 218.8C227.264 216.6 231.554 215.5 236.981 215.5C239.108 215.5 241.051 215.628 242.811 215.885C244.608 216.142 246.129 216.582 247.376 217.205C248.659 217.828 249.649 218.672 250.346 219.735C251.043 220.798 251.391 222.137 251.391 223.75C251.391 224.483 251.336 225.382 251.226 226.445C251.116 227.508 250.914 228.902 250.621 230.625H240.061C240.244 229.818 240.354 229.213 240.391 228.81C240.428 228.37 240.446 228.003 240.446 227.71C240.446 225.84 238.833 224.905 235.606 224.905C234.543 224.905 233.644 224.997 232.911 225.18C232.178 225.327 231.554 225.602 231.041 226.005C230.564 226.408 230.179 226.958 229.886 227.655C229.593 228.315 229.354 229.177 229.171 230.24L227.191 241.57C227.044 242.267 226.971 242.945 226.971 243.605C226.971 244.815 227.319 245.658 228.016 246.135C228.749 246.575 229.941 246.795 231.591 246.795C232.874 246.795 233.919 246.722 234.726 246.575C235.569 246.392 236.229 246.08 236.706 245.64C237.219 245.163 237.604 244.522 237.861 243.715C238.118 242.872 238.319 241.772 238.466 240.415H249.301Z" fill="#363878"></path>
<path d="M176 215.5L167.5 255.27H179L184.5 227.284L189 255.27H208.5L217 215.5H205L198.5 246.432L194 215.5H176Z" fill="#363878"></path>
<path d="M162.344 255.265L169.329 215.5H158.329L151.344 255.265H162.344Z" fill="#363878"></path>
<path d="M86.485 165.5H114.68L113.14 174.3H95.945L94.735 181.175H110.885L109.51 188.765H93.36L92.04 196.355H109.235L107.695 205.265H79.5L86.485 165.5Z" fill="#363878"></path>
<path d="M132.112 165.5H121.112L114.127 205.265H141.002L142.652 195.695H126.777L132.112 165.5Z" fill="#363878"></path>
<path d="M152.485 165.5H180.68L179.14 174.3H161.945L160.735 181.175H176.885L175.51 188.765H159.36L158.04 196.355H175.235L173.695 205.265H145.5L152.485 165.5Z" fill="#363878"></path>
<path d="M214.301 190.415C213.788 193.495 213.109 196.043 212.266 198.06C211.459 200.077 210.323 201.69 208.856 202.9C207.426 204.073 205.611 204.917 203.411 205.43C201.248 205.907 198.571 206.145 195.381 206.145C193.144 206.145 191.109 205.998 189.276 205.705C187.479 205.412 185.921 204.88 184.601 204.11C183.318 203.34 182.328 202.295 181.631 200.975C180.934 199.618 180.586 197.913 180.586 195.86C180.586 195.09 180.623 194.283 180.696 193.44C180.806 192.56 180.953 191.588 181.136 190.525L183.116 179.47C183.959 174.557 185.958 171 189.111 168.8C192.264 166.6 196.554 165.5 201.981 165.5C204.108 165.5 206.051 165.628 207.811 165.885C209.608 166.142 211.129 166.582 212.376 167.205C213.659 167.828 214.649 168.672 215.346 169.735C216.043 170.798 216.391 172.137 216.391 173.75C216.391 174.483 216.336 175.382 216.226 176.445C216.116 177.508 215.914 178.902 215.621 180.625H205.061C205.244 179.818 205.354 179.213 205.391 178.81C205.428 178.37 205.446 178.003 205.446 177.71C205.446 175.84 203.833 174.905 200.606 174.905C199.543 174.905 198.644 174.997 197.911 175.18C197.178 175.327 196.554 175.602 196.041 176.005C195.564 176.408 195.179 176.958 194.886 177.655C194.593 178.315 194.354 179.177 194.171 180.24L192.191 191.57C192.044 192.267 191.971 192.945 191.971 193.605C191.971 194.815 192.319 195.658 193.016 196.135C193.749 196.575 194.941 196.795 196.591 196.795C197.874 196.795 198.919 196.722 199.726 196.575C200.569 196.392 201.229 196.08 201.706 195.64C202.219 195.163 202.604 194.522 202.861 193.715C203.118 192.872 203.319 191.772 203.466 190.415H214.301Z" fill="#363878"></path>
<path d="M230.052 174.85L224.717 205.265H235.717L241.052 174.85H251.062L252.712 165.5H221.692L220.042 174.85H230.052Z" fill="#363878"></path>
<path fill-rule="evenodd" clip-rule="evenodd" d="M256.58 165.5H273.135C275.702 165.5 277.865 165.665 279.625 165.995C281.422 166.288 282.87 166.783 283.97 167.48C285.07 168.14 285.859 169.002 286.335 170.065C286.812 171.128 287.05 172.393 287.05 173.86C287.05 174.52 287.014 175.272 286.94 176.115C286.904 176.922 286.794 177.802 286.61 178.755C286.354 180.185 286.005 181.487 285.565 182.66C285.125 183.833 284.539 184.86 283.805 185.74C283.072 186.62 282.137 187.353 281 187.94C279.9 188.49 278.562 188.838 276.985 188.985C279.369 189.425 281.019 190.103 281.935 191.02C282.889 191.937 283.365 193.183 283.365 194.76C283.365 195.273 283.329 195.823 283.255 196.41C283.219 196.997 283.127 197.657 282.98 198.39L281.77 205.265H270.935L272.31 197.4C272.347 197.143 272.365 196.923 272.365 196.74C272.402 196.52 272.42 196.318 272.42 196.135C272.42 195.805 272.365 195.512 272.255 195.255C272.182 194.962 271.999 194.705 271.705 194.485C271.449 194.265 271.045 194.1 270.495 193.99C269.945 193.88 269.23 193.825 268.35 193.825H262.41L260.43 205.265H249.595L256.58 165.5ZM264.005 184.915C264.959 184.988 265.619 185.043 265.985 185.08H268.68C270.074 185.08 271.174 185.007 271.98 184.86C272.824 184.713 273.465 184.457 273.905 184.09C274.382 183.687 274.73 183.155 274.95 182.495C275.207 181.798 275.427 180.9 275.61 179.8C275.83 178.7 275.94 177.783 275.94 177.05C275.94 175.95 275.61 175.253 274.95 174.96C274.29 174.63 273.099 174.465 271.375 174.465H268.68C267.837 174.465 266.884 174.502 265.82 174.575L264.005 184.915Z" fill="#363878"></path>
<path d="M299.344 205.265L306.329 165.5H295.329L288.344 205.265H299.344Z" fill="#363878"></path>
<path d="M340.301 190.415C339.788 193.495 339.109 196.043 338.266 198.06C337.459 200.077 336.323 201.69 334.856 202.9C333.426 204.073 331.611 204.917 329.411 205.43C327.248 205.907 324.571 206.145 321.381 206.145C319.144 206.145 317.109 205.998 315.276 205.705C313.479 205.412 311.921 204.88 310.601 204.11C309.318 203.34 308.328 202.295 307.631 200.975C306.934 199.618 306.586 197.913 306.586 195.86C306.586 195.09 306.623 194.283 306.696 193.44C306.806 192.56 306.953 191.588 307.136 190.525L309.116 179.47C309.959 174.557 311.958 171 315.111 168.8C318.264 166.6 322.554 165.5 327.981 165.5C330.108 165.5 332.051 165.628 333.811 165.885C335.608 166.142 337.129 166.582 338.376 167.205C339.659 167.828 340.649 168.672 341.346 169.735C342.043 170.798 342.391 172.137 342.391 173.75C342.391 174.483 342.336 175.382 342.226 176.445C342.116 177.508 341.914 178.902 341.621 180.625H331.061C331.244 179.818 331.354 179.213 331.391 178.81C331.428 178.37 331.446 178.003 331.446 177.71C331.446 175.84 329.833 174.905 326.606 174.905C325.543 174.905 324.644 174.997 323.911 175.18C323.178 175.327 322.554 175.602 322.041 176.005C321.564 176.408 321.179 176.958 320.886 177.655C320.593 178.315 320.354 179.177 320.171 180.24L318.191 191.57C318.044 192.267 317.971 192.945 317.971 193.605C317.971 194.815 318.319 195.658 319.016 196.135C319.749 196.575 320.941 196.795 322.591 196.795C323.874 196.795 324.919 196.722 325.726 196.575C326.569 196.392 327.229 196.08 327.706 195.64C328.219 195.163 328.604 194.522 328.861 193.715C329.118 192.872 329.319 191.772 329.466 190.415H340.301Z" fill="#363878"></path>
<path fill-rule="evenodd" clip-rule="evenodd" d="M123.644 156H101.275L108.26 116.235H125.53C128.537 116.235 131.048 116.455 133.065 116.895C135.082 117.335 136.713 117.995 137.96 118.875C139.207 119.718 140.087 120.763 140.6 122.01C141.15 123.257 141.425 124.668 141.425 126.245C141.425 127.272 141.333 128.647 141.15 130.37C140.967 132.057 140.673 134.037 140.27 136.31C139.573 140.233 138.73 143.478 137.74 146.045C136.787 148.612 135.485 150.647 133.835 152.15C132.185 153.653 130.077 154.717 127.51 155.34C126.352 155.625 125.064 155.845 123.644 156ZM113.87 146.705H120.91C122.413 146.705 123.623 146.595 124.54 146.375C125.457 146.155 126.208 145.623 126.795 144.78C127.382 143.9 127.877 142.598 128.28 140.875C128.683 139.152 129.16 136.768 129.71 133.725C129.893 132.772 130.022 131.928 130.095 131.195C130.205 130.425 130.26 129.765 130.26 129.215C130.26 128.518 130.168 127.932 129.985 127.455C129.838 126.942 129.545 126.557 129.105 126.3C128.665 126.007 128.042 125.805 127.235 125.695C126.465 125.548 125.438 125.475 124.155 125.475H119.81C119.37 125.475 118.637 125.512 117.61 125.585L113.87 146.705Z" fill="#363878"></path>
<path d="M159.146 116.235L154.306 143.57C154.269 143.753 154.232 143.918 154.196 144.065V144.505C154.196 144.982 154.269 145.385 154.416 145.715C154.562 146.045 154.837 146.32 155.241 146.54C155.681 146.723 156.286 146.87 157.056 146.98C157.826 147.053 158.834 147.09 160.081 147.09C161.657 147.09 162.922 147.035 163.876 146.925C164.829 146.778 165.562 146.54 166.076 146.21C166.626 145.88 167.011 145.44 167.231 144.89C167.487 144.303 167.707 143.57 167.891 142.69L172.565 116.235H183.566L179.276 140.49C178.726 143.68 177.956 146.302 176.966 148.355C175.976 150.408 174.674 152.022 173.061 153.195C171.447 154.368 169.431 155.193 167.011 155.67C164.627 156.11 161.749 156.33 158.376 156.33C155.552 156.33 153.169 156.147 151.226 155.78C149.282 155.377 147.706 154.772 146.496 153.965C145.322 153.158 144.461 152.132 143.911 150.885C143.397 149.602 143.141 148.08 143.141 146.32C143.141 145.22 143.251 144.01 143.471 142.69L148.146 116.235H159.146Z" fill="#363878"></path>
<path fill-rule="evenodd" clip-rule="evenodd" d="M207.347 116.235H189.747L182.762 156H201.352C204.102 156 206.412 155.835 208.282 155.505C210.189 155.175 211.766 154.607 213.012 153.8C214.259 152.957 215.231 151.857 215.927 150.5C216.624 149.107 217.156 147.383 217.522 145.33C217.742 144.01 217.852 142.855 217.852 141.865C217.852 140.068 217.339 138.657 216.312 137.63C215.322 136.603 213.636 135.888 211.252 135.485C212.609 135.302 213.764 135.045 214.717 134.715C215.707 134.348 216.532 133.853 217.192 133.23C217.889 132.57 218.457 131.763 218.897 130.81C219.337 129.82 219.686 128.592 219.942 127.125C220.162 125.878 220.272 124.76 220.272 123.77C220.272 122.597 220.071 121.552 219.667 120.635C219.301 119.682 218.622 118.893 217.632 118.27C216.679 117.61 215.359 117.115 213.672 116.785C212.022 116.418 209.914 116.235 207.347 116.235ZM204.652 131.91H197.612L198.822 124.815C199.666 124.778 200.546 124.76 201.462 124.76C202.379 124.723 203.589 124.705 205.092 124.705C206.009 124.705 206.742 124.742 207.292 124.815C207.842 124.888 208.264 124.998 208.557 125.145C208.851 125.292 209.034 125.475 209.107 125.695C209.181 125.915 209.217 126.153 209.217 126.41C209.217 126.557 209.199 126.722 209.162 126.905C209.162 127.088 209.144 127.272 209.107 127.455C208.924 128.555 208.741 129.417 208.557 130.04C208.411 130.627 208.191 131.067 207.897 131.36C207.641 131.617 207.256 131.782 206.742 131.855C206.229 131.892 205.532 131.91 204.652 131.91ZM202.947 147.365H194.862L196.237 139.665C197.154 139.592 197.869 139.555 198.382 139.555H202.782C203.736 139.555 204.487 139.592 205.037 139.665C205.624 139.738 206.064 139.867 206.357 140.05C206.687 140.197 206.907 140.398 207.017 140.655C207.127 140.875 207.182 141.15 207.182 141.48C207.182 141.883 207.127 142.415 207.017 143.075C206.834 144.102 206.651 144.908 206.467 145.495C206.321 146.045 206.101 146.467 205.807 146.76C205.551 147.017 205.202 147.182 204.762 147.255C204.322 147.328 203.717 147.365 202.947 147.365Z" fill="#363878"></path>
<path fill-rule="evenodd" clip-rule="evenodd" d="M252.729 116.235L256.854 156H245.689L245.084 148.85H232.379L229.464 156H218.134L236.284 116.235H252.729ZM244.534 140.985L243.489 124.485H242.609L235.734 140.985H244.534Z" fill="#363878"></path>
<path d="M277.112 116.235H266.112L259.127 156H286.002L287.652 146.43H271.777L277.112 116.235Z" fill="#363878"></path>
<path d="M307.112 116.235H296.112L289.127 156H316.002L317.652 146.43H301.777L307.112 116.235Z" fill="#363878"></path>
<path d="M54.2558 115.647L36.5109 162.647C36.2639 163.301 36.7473 164 37.4464 164H52.9775C53.697 164 54.181 164.737 53.8952 165.397L40.6048 196.103C40.319 196.763 40.803 197.5 41.5225 197.5H50.5381C51.2415 197.5 51.7251 198.207 51.4701 198.862L39.6968 229.137C39.3059 230.142 40.5639 230.969 41.3314 230.211L75.7665 196.212C76.4026 195.583 75.9578 194.5 75.0639 194.5H63.2534C62.4789 194.5 61.9984 193.657 62.3927 192.991L81.6073 160.509C82.0016 159.843 81.5211 159 80.7466 159H67.1345C66.3872 159 65.9039 158.21 66.2442 157.545L87.2558 116.455C87.5961 115.79 87.1128 115 86.3655 115H55.1913C54.7753 115 54.4027 115.258 54.2558 115.647Z" fill="#F13A3A"></path>
</svg><style>@media (prefers-color-scheme: light) { :root { filter: none; } }
@media (prefers-color-scheme: dark) { :root { filter: contrast(0.8333333333333334) brightness(1.7); } }
</style></svg>